<svg xmlns="http://www.w3.org/2000/svg" width="23" height="18" fill="none" viewBox="0 0 23 18">
  <path fill="#71717A" d="M22.45 10.19a.749.749 0 0 1-1.05-.15 4.837 4.837 0 0 0-3.9-1.95.75.75 0 0 1 0-1.5 2.25 2.25 0 1 0-2.179-2.812.751.751 0 0 1-1.453-.375 3.75 3.75 0 1 1 6.163 3.704 6.37 6.37 0 0 1 2.572 2.032.75.75 0 0 1-.153 1.051Zm-5.051 5.775a.75.75 0 1 1-1.298.75 5.345 5.345 0 0 0-9.202 0 .75.75 0 1 1-1.298-.75 6.756 6.756 0 0 1 3.163-2.805 4.5 4.5 0 1 1 5.472 0 6.756 6.756 0 0 1 3.163 2.805ZM11.5 12.59a3 3 0 1 0 0-5.999 3 3 0 0 0 0 5.999ZM6.25 7.34a.75.75 0 0 0-.75-.75 2.25 2.25 0 1 1 2.179-2.812.75.75 0 1 0 1.453-.375 3.75 3.75 0 1 0-6.163 3.704A6.37 6.37 0 0 0 .4 9.139a.75.75 0 1 0 1.2.901 4.838 4.838 0 0 1 3.9-1.95.75.75 0 0 0 .75-.75Z"/>
</svg>
