<svg xmlns="http://www.w3.org/2000/svg" width="66" height="22" fill="none" viewBox="0 0 66 22">
  <rect width="65.22" height="21.19" x=".78" y=".5" fill="#00FA3E" fill-opacity=".2" rx="4"/>
  <path fill="#00A113" d="M11.993 9.2a.989.989 0 0 0-.402-.734c-.237-.174-.559-.261-.965-.261-.276 0-.51.039-.7.117a.984.984 0 0 0-.437.316.762.762 0 0 0-.148.461.658.658 0 0 0 .09.375c.067.107.16.2.277.278.117.075.252.141.406.199.154.054.318.101.492.14l.719.172c.349.078.67.183.961.313.292.13.544.29.758.48.213.19.379.414.496.672.12.258.18.553.184.887-.003.49-.128.914-.376 1.273-.244.357-.599.634-1.062.832-.461.196-1.017.293-1.668.293-.646 0-1.208-.099-1.687-.297a2.472 2.472 0 0 1-1.118-.878c-.265-.391-.405-.874-.418-1.45h1.637c.018.268.095.492.23.672.139.177.322.311.551.402.232.089.494.133.785.133.287 0 .536-.041.747-.125.213-.083.378-.199.496-.347a.803.803 0 0 0 .175-.512c0-.18-.053-.33-.16-.453a1.214 1.214 0 0 0-.46-.313 4.695 4.695 0 0 0-.739-.234l-.871-.219c-.675-.164-1.207-.42-1.598-.77-.39-.348-.584-.818-.582-1.41a2.097 2.097 0 0 1 .387-1.269 2.609 2.609 0 0 1 1.082-.848c.458-.203.98-.304 1.563-.304.593 0 1.111.101 1.554.304a2.46 2.46 0 0 1 1.04.848c.247.362.374.781.382 1.258h-1.621Zm4.548 5.813a2.5 2.5 0 0 1-1.024-.199 1.648 1.648 0 0 1-.71-.598c-.172-.265-.258-.596-.258-.992 0-.333.06-.613.183-.84.123-.226.29-.409.5-.546.211-.138.45-.243.719-.313.27-.07.555-.12.852-.148.348-.037.63-.07.843-.102.214-.034.369-.083.465-.148a.326.326 0 0 0 .145-.29v-.023c0-.247-.078-.439-.235-.574-.153-.136-.372-.203-.656-.203-.3 0-.538.066-.715.199a.917.917 0 0 0-.351.492l-1.54-.125a2.1 2.1 0 0 1 .461-.945c.23-.268.525-.474.887-.617a3.39 3.39 0 0 1 1.266-.22c.333 0 .652.04.957.118.307.078.58.2.816.363.24.164.429.375.567.633.138.255.207.561.207.918V14.9h-1.578v-.832h-.047a1.695 1.695 0 0 1-.387.496c-.161.14-.355.251-.582.332a2.406 2.406 0 0 1-.785.117Zm.476-1.148c.245 0 .461-.048.649-.145a1.15 1.15 0 0 0 .441-.398c.107-.167.16-.356.16-.566v-.637a.892.892 0 0 1-.214.094 4.441 4.441 0 0 1-.637.132l-.305.043a2.056 2.056 0 0 0-.512.137.818.818 0 0 0-.34.254.619.619 0 0 0-.12.39c0 .227.082.4.246.52.166.117.377.176.632.176ZM26.59 8.9l-2.098 6h-1.875l-2.098-6h1.758l1.246 4.293h.063L24.828 8.9h1.762Zm3.392 6.117c-.617 0-1.148-.125-1.593-.375a2.569 2.569 0 0 1-1.024-1.07c-.24-.464-.36-1.012-.36-1.645 0-.617.12-1.159.36-1.625.24-.466.577-.83 1.012-1.09.437-.26.95-.39 1.539-.39.396 0 .764.064 1.105.191.344.125.644.314.899.567.258.252.458.57.601.953.144.38.215.825.215 1.336v.457H27.67v-1.032h3.5c0-.24-.052-.451-.157-.636a1.119 1.119 0 0 0-.433-.434 1.236 1.236 0 0 0-.637-.16c-.252 0-.476.059-.672.176a1.24 1.24 0 0 0-.453.465c-.11.192-.165.407-.168.644v.98c0 .298.055.554.164.77a1.2 1.2 0 0 0 .473.5c.203.117.444.176.723.176.184 0 .354-.026.507-.078a1.05 1.05 0 0 0 .395-.234 1.02 1.02 0 0 0 .25-.383l1.539.101c-.078.37-.238.693-.48.969-.24.273-.55.487-.93.64-.378.152-.814.227-1.309.227Zm6.25-1.523v-1.332l3.34-5.262h1.148v1.844h-.68l-2.106 3.332v.062h4.747v1.356h-6.45Zm3.84 1.406v-1.813l.03-.59V6.9h1.586v8h-1.617Zm6.872.176c-.672-.003-1.25-.168-1.734-.496-.482-.328-.853-.804-1.114-1.426-.257-.623-.385-1.371-.382-2.246 0-.873.129-1.616.386-2.23.26-.615.632-1.083 1.114-1.403.484-.323 1.06-.484 1.73-.484.67 0 1.245.161 1.727.484.484.323.857.792 1.117 1.406.26.612.39 1.354.387 2.227 0 .877-.13 1.627-.391 2.25-.258.622-.628 1.098-1.11 1.426-.481.328-1.058.492-1.73.492Zm0-1.403c.459 0 .824-.23 1.098-.691.273-.46.409-1.152.406-2.074 0-.607-.062-1.112-.187-1.516-.123-.403-.297-.707-.524-.91a1.142 1.142 0 0 0-.793-.305c-.456 0-.82.228-1.094.684-.273.456-.411 1.138-.414 2.047 0 .614.062 1.127.184 1.539.125.409.3.716.527.922.227.203.492.304.797.304Zm8.816-.273v-.422c0-.32.067-.614.203-.883a1.61 1.61 0 0 1 .597-.648c.263-.164.584-.246.961-.246.383 0 .705.08.965.242.263.161.461.378.594.648.135.269.203.564.203.887v.422c0 .32-.068.616-.203.887a1.58 1.58 0 0 1-.598.644c-.263.164-.583.246-.96.246-.383 0-.705-.082-.965-.246a1.59 1.59 0 0 1-.594-.644 1.955 1.955 0 0 1-.203-.887Zm1.136-.422v.422c0 .185.045.36.133.523.091.165.255.246.492.246s.399-.08.485-.242a1.08 1.08 0 0 0 .133-.527v-.422c0-.19-.042-.367-.126-.531-.083-.164-.247-.246-.492-.246-.234 0-.397.082-.488.246a1.075 1.075 0 0 0-.137.531Zm-5.242-4.156V8.4c0-.323.07-.619.207-.887a1.61 1.61 0 0 1 .598-.648c.263-.162.58-.242.953-.242.385 0 .708.08.969.242.26.161.458.377.593.648.136.269.204.564.204.887v.422c0 .323-.07.618-.207.887a1.581 1.581 0 0 1-.598.644c-.26.159-.58.238-.961.238-.38 0-.702-.08-.965-.242a1.623 1.623 0 0 1-.594-.644 1.962 1.962 0 0 1-.199-.883ZM52.8 8.4v.422c0 .19.044.366.133.527.09.162.25.242.48.242.24 0 .402-.08.488-.242.089-.161.133-.337.133-.527V8.4c0-.19-.042-.367-.125-.531-.083-.164-.249-.246-.496-.246-.232 0-.392.083-.48.25a1.108 1.108 0 0 0-.133.527Zm-.63 6.5 5.5-8h1.024l-5.5 8H52.17Z"/>
</svg>
